PathFileType	4	(X/Y/Z)	S00_P01_T02_Participants1-2_P1_0-100.trc
DataRate	CameraRate	NumFrames	NumMarkers	Units	OrigDataRate	OrigDataStartFrame	OrigNumFrames
60	60	9	21	m	60	37	100
Frame#	Time	RHip			RKnee			RAnkle			RBigToe			RSmallToe			RHeel			LHip			LKnee			LAnkle			LBigToe			LSmallToe			LHeel			Neck			Head			Nose			RShoulder			RElbow			RWrist			LShoulder			LElbow			LWrist		
		X1	Y1	Z1	X2	Y2	Z2	X3	Y3	Z3	X4	Y4	Z4	X5	Y5	Z5	X6	Y6	Z6	X7	Y7	Z7	X8	Y8	Z8	X9	Y9	Z9	X10	Y10	Z10	X11	Y11	Z11	X12	Y12	Z12	X13	Y13	Z13	X14	Y14	Z14	X15	Y15	Z15	X16	Y16	Z16	X17	Y17	Z17	X18	Y18	Z18	X19	Y19	Z19	X20	Y20	Z20	X21	Y21	Z21
38	0.6333333333333333	-1.0510453999602882	0.9498403389759915	-0.9743256505423092	-0.8758648421992469	0.9392048783627479	-0.7312337316129615	-0.8763933126062828	0.9132594307238668	-0.965112575603712	-0.7781900667506422	0.9078543987355782	-1.0411031539646696	-0.8009026083499967	0.8873912991167591	-1.0356743476414891	-0.8974897508893256	0.9191083210052657	-1.0080352509762465	-1.0515943359735462	0.9504542521578367	-1.1185066128021437	-0.8780286952845211	0.9416819765015387	-1.3567021485082245	-0.8897356232543128	0.9196253532689014	-1.1238308903188041	-0.7892258823918039	0.9114124910072312	-1.0578564426904657	-0.8129578970303253	0.8916201354005703	-1.061737396968104	-0.9115516978215612	0.926268916696412	-1.079249758699424	-1.0739199799943804	1.359573953376487	-1.0465338423628052	-1.038026072942508	1.517320886096988	-1.0581997721130605	-0.987446710733207	1.4230227495708898	-1.0443399866809753	-1.093274457201517	1.3039690172431682	-0.9235074560984997	-1.0403577192215157	1.1287024159948809	-0.8365926463677431	-0.8841525216269581	1.0485047994325756	-0.9184072106871558	-1.0808856604310841	1.3078433811033332	-1.1782416437129215	-1.0444132102394312	1.135471389248301	-1.2645900136893324	-0.9057858426877995	1.0725213670580709	-1.1370927078884945
39	0.65	-1.0510399133112274	0.9463894090611144	-0.9743310101199254	-0.8758580618376254	0.9357547324238873	-0.7312454126559328	-0.8750203307911651	0.9092034564947158	-0.9650626420445254	-0.776395578471779	0.9036976432440821	-1.0404879988033982	-0.7991210366662792	0.8832288039226694	-1.0351345108552519	-0.895891114473875	0.9149306362141578	-1.0081121032938207	-1.0515895329044307	0.9470036521461164	-1.1185117880038011	-0.8780258976644487	0.9382327668996131	-1.3567104003952102	-0.889731461761234	0.9161755268016075	-1.123839192909609	-0.789221504418474	0.9079629013639323	-1.0578672463672827	-0.8129535037780531	0.8881706387411251	-1.0617476328332156	-0.9115472078312777	0.9228188756403831	-1.0792578226347613	-1.072679812389063	1.3564122552780868	-1.0457147528115176	-1.0380094570951244	1.5138768453999687	-1.058192117681136	-0.9874893076097276	1.4195562961635533	-1.04439049979903	-1.0900949085112537	1.3011875412117262	-0.9211989249991231	-1.0406024942809673	1.126329715975816	-0.8344950564106544	-0.8856872536967316	1.0440465570443809	-0.9167055206956423	-1.080879431701144	1.3043897796139277	-1.1782521426261034	-1.044408550875923	1.1320197903147464	-1.2645983164975407	-0.9055596710317151	1.0670724665996656	-1.1385632935954861
40	0.6666666666666666	-1.0510343131862476	0.9428641925014506	-0.9743364729203984	-0.8758511365527587	0.9322303135307104	-0.7312573639577757	-0.8736174985432517	0.9050614397949439	-0.9650023335862241	-0.7745652121607258	0.8994544037086538	-1.0398476892365087	-0.7973034457319558	0.8789795098357672	-1.034571190467108	-0.8942569427327856	0.9106641632561469	-1.0081796992420593	-1.0515846316791506	0.943478771898484	-1.118517047772224	-0.8780230413744867	0.9347093037899091	-1.3567187913679257	-0.8897272115758926	0.9126514348326061	-1.1238476591311117	-0.7892170309100436	0.9044390503400118	-1.0578782797703306	-0.8129490144497746	0.8846468828681799	-1.061758085128615	-0.9115426226952013	0.9192945648524564	-1.0792660474833355	-1.0721818604074316	1.3529996770259303	-1.0453950562072256	-1.0379924780022265	1.5103586441443784	-1.0581842551160907	-0.9874979679414151	1.416023522168884	-1.0444146443291078	-1.0865114813717252	1.2984152203684725	-0.9185987333358158	-1.0408567412466772	1.1239311629548883	-0.8323636616357505	-0.8872801161222915	1.0395020499860235	-0.9149260481770267	-1.0808730946160725	1.3008618333561357	-1.1782627844008762	-1.0444038061315066	1.1284938886754776	-1.264606732924468	-0.9053505459101289	1.0615177205891593	-1.1400847737389266
41	0.6833333333333333	-1.051028629779848	0.9392836251468472	-0.9743420091874634	-0.8758441035038802	0.9286505530581158	-0.7312695223590961	-0.872192388598539	0.9008557236417731	-0.9649314594384578	-0.7727090227750236	0.895147667021094	-1.0391850269913023	-0.7954597981959177	0.874666425860661	-1.0339867744897902	-0.8925960139723795	0.9063319113478403	-1.0082370663702294	-1.0515796587608852	0.9398985454258274	-1.1185223626989858	-0.8780201416906899	0.9311305133970701	-1.3567272745366947	-0.8897228954435319	0.9090720070298917	-1.1238562428785743	-0.7892124857079618	0.9008598662512272	-1.0578894835803094	-0.812944452960033	0.8810677955957387	-1.061768697609545	-0.9115379669923016	0.9157149151963929	-1.07927438856619	-1.0721226911857265	1.3494274369980999	-1.0453704701015203	-1.0379752264996378	1.5067851792759166	-1.0581762246669162	-0.9874883399062911	1.4124396673942674	-1.0444246150297578	-1.0833360344600167	1.2955001008522122	-0.9162976519015756	-1.0411192970487584	1.1215209729031743	-0.8302108563697428	-0.8889238018579424	1.0348975399567752	-0.9130759848611081	-1.0808666844146604	1.2972784928294434	-1.1782735078012465	-1.0443990021224239	1.124912623782496	-1.2646152146343406	-0.9051608417830016	1.055887918623784	-1.1416498088106704
42	0.7	-1.0510228936494013	0.9356669396236839	-0.9743475889811722	-0.8758370004045253	0.9250346791573506	-0.7312818232918866	-0.8707527019818576	0.8966089743429385	-0.9648500327814442	-0.7708371656505835	0.8908007152599333	-1.0385031240215765	-0.7936001649409851	0.8703128608019911	-1.0333839534142222	-0.8909172725864114	0.9019572264976523	-1.0082834594832972	-1.051574640903203	0.936282203502474	-1.1185277035276073	-0.8780172140860562	0.9275156186585465	-1.3567358031497811	-0.8897185364391165	0.9054564697993264	-1.1238648976703847	-0.7892078930499719	0.8972445741515086	-1.057900797616292	-0.8129398436255181	0.8774526014644508	-1.0617794132422742	-0.9115332656463003	0.912099154283845	-1.0792828007957662	-1.0722586549299788	1.3457727479239163	-1.045477029445457	-1.0379577949674135	1.5031756444017192	-1.0581680682000563	-0.9874718187289756	1.408821282631605	-1.044429264246074	-1.0811079343286853	1.292348202952646	-0.914687711643546	-1.0413888847194124	1.119113017089578	-0.8280489958371845	-0.8906103208670995	1.0302595657423552	-0.9111635805446798	-1.0808602363043192	1.2936590055542603	-1.178284252507855	-1.0443941650323127	1.1212952319584868	-1.264623714005803	-0.904992482174046	1.050214094661368	-1.1432505006850875
43	0.7166666666666667	-1.0510171355540192	0.9320335620196291	-0.9743531823363467	-0.8758298653237471	0.9214021134683256	-0.7312942011106761	-0.8693062243147509	0.8923440575267618	-0.9647582785413022	-0.7689598362357495	0.8864369967387484	-1.037805394805678	-0.7917346656482324	0.8659422943219756	-1.0327657148689546	-0.8892297789653029	0.8975636637686769	-1.0083183741119544	-1.0515696050093608	0.9326491703611951	-1.1185330413173171	-0.8780142741534601	0.9238840359642425	-1.3567443308616707	-0.8897141578490945	0.9018242430048456	-1.1238735769004005	-0.7892032774466204	0.893612592561437	-1.0579121611563327	-0.8129352110413378	0.8738207184726979	-1.0617901745080989	-0.9115285437969666	0.9084667031878125	-1.0792912389189464	-1.0724365327377279	1.3420914731834521	-1.045611639164495	-1.0379402768411703	1.499549426703041	-1.0581598289910676	-0.9874549797160004	1.405186260124089	-1.0444336588100798	-1.0798700820459723	1.288970380550232	-0.9137994660423945	-1.04166411810563	1.11672072909105	-0.8258903050887709	-0.8923310283544363	1.0256147292311124	-0.9091981407234802	-1.080853785261156	1.2900228126761766	-1.1782949594865022	-1.0443893209685828	1.1176611430624221	-1.2646321844194812	-0.9048469088087285	1.0445273352555893	-1.1448784297537786
44	0.7333333333333333	-1.0510113862943546	0.9284030075224459	-0.9743587594162234	-0.8758227364860606	0.9177723667845635	-0.7313065894363087	-0.8678607813921332	0.8880839134781149	-0.9646566366637541	-0.7670872103805532	0.8820799971485875	-1.0370955426419626	-0.7898734097198172	0.8615782479975297	-1.0321353323329598	-0.8875426581786672	0.8931748587349628	-1.0083415547599337	-1.0515645779930718	0.9290189593420093	-1.1185383475947068	-0.8780113375288991	0.9202552708488309	-1.3567528119845598	-0.889709783052689	0.8981948356417834	-1.1238822340850747	-0.7891986635561399	0.8899834291494582	-1.05792351325976	-0.812930579955556	0.870191653760523	-1.0618009237083095	-0.9115238266711367	0.9048370721093447	-1.0792996577559837	-1.0725817877240047	1.3384208462953147	-1.0457241347324648	-1.0379227661158708	1.4959260027933512	-1.0581515514919	-0.9874406445385397	1.4015534746711347	-1.0444399189460891	-1.0793730179612315	1.2854390731175516	-0.9134507731908955	-1.0419435088286741	1.1143570237364324	-0.8237467916075651	-0.8940766662515256	1.0209894797210093	-0.9071900003715008	-1.0808473658411193	1.2863894445231032	-1.1783055713184636	-1.0443844958250323	1.1140298761081746	-1.2646405805155547	-0.9047250614166732	1.038858590786938	-1.146524702791993
45	0.75	-1.0510056765539604	0.9247947756080405	-0.9743642906609246	-0.8758156520710314	0.914164934265763	-0.7313189215105655	-0.8664241944066682	0.8838514325607162	-0.9645457607757102	-0.7652293857183073	0.8777531116267273	-1.0363775399539321	-0.7880264380885676	0.8572441572082092	-1.0314963478938028	-0.8858650478620689	0.8888143989436094	-1.0083529977607817	-1.0515595866412148	0.9254110680899302	-1.1185435944929494	-0.878008419815137	0.9166488132316132	-1.3567612017220052	-0.8897054354030817	0.8945877410582983	-1.1238908231043057	-0.7891940760581242	0.8863765759607473	-1.057934793089535	-0.8129259751424167	0.866584898841304	-1.0618116032686258	-0.9115191394538872	0.901229755592508	-1.07930801243432	-1.0726724847678226	1.334785582521829	-1.0457997234885266	-1.0379053568446914	1.4923248341155937	-1.0581432810756957	-0.9874293339675055	1.3979423326327993	-1.0444483601145118	-1.0793139153566276	1.281837815442393	-0.9134208258190887	-1.0422254754233176	1.1120342285679035	-0.8216301629559866	-0.8958374176548927	1.016409901112473	-0.9051504731937422	-1.0808410120030025	1.282778415710998	-1.1783160324911721	-1.0443797151508587	1.1104209344315144	-1.2646488584203825	-0.9046273686334623	1.0332384916485555	-1.1481800109291027
46	0.7666666666666667	-1.0510000367427281	0.921228245352025	-0.9743697469305477	-0.8758086500133151	0.9105991907725669	-0.7313311305597113	-0.8650042351985298	0.8796693314701023	-0.9644265122249	-0.7633963246410607	0.8734795185291466	-1.03565560274448	-0.7862036664114765	0.8529632446333757	-1.0308525491700924	-0.8842060457459526	0.8845056961599165	-1.0083529486947505	-1.0515546574788734	0.9218448738758852	-1.1185487548785735	-0.8780055365057939	0.9130840327779242	-1.3567694563841513	-0.8897011381088125	0.8910223322989907	-1.1238992984351681	-0.7891895395264015	0.8828114047677649	-1.0579459402331597	-0.8129214212746612	0.863019824955197	-1.0618221560417103	-0.91151450716024	0.8976641278617397	-1.0793162586164828	-1.0727143311987535	1.3312037137053139	-1.045842192865667	-1.037888142635565	1.4887652624517091	-1.0581350637614495	-0.9874204881127813	1.39437237660143	-1.0444584518865037	-1.0794496367145787	1.2782373356720422	-0.9135324242591912	-1.0425083545380034	1.109764028076256	-0.8195517507418469	-0.8976029736098956	1.0119015066220112	-0.903091776475717	-1.0808347569437726	1.2792091203729492	-1.1783262896488178	-1.0443750040270074	1.1068537009798045	-1.2646569759419954	-0.9045537501764994	1.0276971712115783	-1.1498346968435826
